# xmcd
# Track frame offsets:
# 150
# 13020
# 30162
# 44107
# 58290
# 68932
# 86507
# 104079
# 120790
# 131937
# 144325
# 156697
# 169390
# 186927
#
# Disc length: 2682 seconds
# Revision: 0
# Processed by: cddbd v1.4PL0 Copyright (c) Steve Scherf et al.
# Submitted via: VisiTrax 2.9.5.180 - For more info visit www.synapsa.com
#
DISCID=d00a780e
DTITLE=Terry Sumsion - Authentic Country
DYEAR=1995
DGENRE=
TTITLE0=Midnight invitation
TTITLE1=Lost in Texas
TTITLE2=Too Bad we're only friends
TTITLE3=Our lovin' place
TTITLE4=Just in case
TTITLE5=Climbin' the ladder
TTITLE6=When you leave that way
TTITLE7=Shenandoah
TTITLE8=Evenin' sun
TTITLE9=The lonliest star in Texas
TTITLE10=Out of hand, out of control
TTITLE11=Ride the storm
TTITLE12=That's when you know it's over
TTITLE13=Lovin' the night away
EXTD=
EXTT0=
EXTT1=
EXTT2=
EXTT3=
EXTT4=
EXTT5=
EXTT6=
EXTT7=
EXTT8=
EXTT9=
EXTT10=
EXTT11=
EXTT12=
EXTT13=
PLAYORDER=
